<?xml version="1.0" standalone="no"?>
<!DOCTYPE svg PUBLIC "-//W3C//DTD SVG 20010904//EN"
 "http://www.w3.org/TR/2001/REC-SVG-20010904/DTD/svg10.dtd">
<svg version="1.0" xmlns="http://www.w3.org/2000/svg"
 width="128.000000pt" height="128.000000pt" viewBox="0 0 128.000000 128.000000"
 preserveAspectRatio="xMidYMid meet">
<metadata>
Created by potrace 1.11, written by Peter Selinger 2001-2013
</metadata>
<g transform="translate(0.000000,128.000000) scale(0.100000,-0.100000)"
fill="#000000" stroke="none">
<path d="M170 1255 c-19 -8 -44 -11 -56 -8 -21 4 -21 2 -19 -99 2 -127 11
-178 41 -244 28 -60 29 -69 8 -141 -14 -47 -14 -65 -4 -121 17 -88 53 -185 88
-233 16 -21 55 -58 88 -82 75 -55 108 -95 143 -171 53 -117 157 -168 256 -126
53 23 82 56 130 148 31 58 54 86 95 119 78 60 133 114 146 143 37 80 47 110
62 180 15 72 15 82 -3 158 -17 76 -17 83 -2 100 31 35 48 113 52 243 l4 127
-39 0 c-21 0 -48 6 -59 11 -60 32 -177 -12 -211 -79 -11 -22 -24 -41 -28 -41
-45 -7 -428 -2 -434 6 -5 5 -18 24 -28 42 -24 41 -106 83 -157 82 -21 -1 -54
-7 -73 -14z"/>
</g>
</svg>
