<?xml version="1.0" encoding="utf-8"?>
<!-- Generator: Adobe Illustrator 16.0.4, SVG Export Plug-In . SVG Version: 6.00 Build 0)  -->
<!DOCTYPE svg PUBLIC "-//W3C//DTD SVG 1.1//EN" "http://www.w3.org/Graphics/SVG/1.1/DTD/svg11.dtd">
<svg version="1.1" id="Layer_1" xmlns="http://www.w3.org/2000/svg" xmlns:xlink="http://www.w3.org/1999/xlink" x="0px" y="0px"
	 width="314.189px" height="314.191px" viewBox="0 0 314.189 314.191" enable-background="new 0 0 314.189 314.191"
	 xml:space="preserve">
<g>
	<path fill="#444444" d="M296.766,69.137c-2.035,3.047-3.97,5.944-6.062,9.08c-2.575-1.896-5.146-3.559-7.455-5.53
		c-9.626-8.221-20.989-10-33.049-8.882c-19.056,1.768-35.521,9.646-49.836,22.077c-22.545,19.574-35.614,44.26-38.993,73.946
		c-2.413,21.194-0.656,42.213,3.104,63.131c4.003,22.27,9.97,43.957,18.758,64.838c0.282,0.67,0.458,1.385,0.731,2.228
		c-45.338,0-90.471,0-136.167,0c-0.112-8.979-0.947-17.913-0.211-26.717c3.58-42.828,14.812-83.585,34.088-122.077
		c7.938-15.85,15.566-31.855,25.591-46.561c12.056-17.684,26.486-32.932,44.868-44.183c15.112-9.25,31.423-14.993,48.999-17.448
		c21.302-2.977,40.964,2.232,59.924,11.283C274.22,50.604,286.172,58.683,296.766,69.137z"/>
	<path fill="#444444" d="M20.788,221.733c8.926,0.647,17.541,1.274,26.481,1.925c-1.541,8.989-3.059,17.846-4.604,26.87
		c-8.341-1.028-16.477-2.03-24.945-3.075C18.742,238.88,19.75,230.433,20.788,221.733z"/>
	<path fill="#444444" d="M38.87,157.471c2.567-7.065,5.055-13.91,7.667-21.095c7.832,2.951,15.545,5.858,23.423,8.826
		c-2.479,6.775-4.867,13.299-7.304,19.959C54.633,162.568,46.839,160.046,38.87,157.471z"/>
	<path fill="#444444" d="M206.039,266.666c-3.753-0.219-7.045-0.412-10.337-0.598c-4.736-0.268-9.473-0.587-14.212-0.757
		c-1.782-0.063-2.547-0.737-3.008-2.502c-1.383-5.287-3.006-10.513-4.644-16.136c5.349,0,10.371,0.465,15.27-0.123
		c5.698-0.682,8.807,1.238,10.651,6.675C201.291,257.734,203.777,261.917,206.039,266.666z"/>
	<path fill="#444444" d="M96.126,96.719c-6.271-4.185-12.279-8.194-18.416-12.289c4.762-5.282,9.374-10.396,14.186-15.733
		c5.987,3.816,11.908,7.589,18.046,11.501C105.292,85.757,100.78,91.153,96.126,96.719z"/>
	<path fill="#444444" d="M167.687,183.302c6.548,3.457,12.633,6.646,18.676,9.91c0.463,0.248,0.86,1.015,0.905,1.57
		c0.415,5.036,0.744,10.079,1.13,15.571c-1.043-0.366-1.778-0.579-2.479-0.877c-5.646-2.412-11.268-4.888-16.94-7.231
		c-1.486-0.613-2.147-1.266-2.017-3.05C167.341,194.072,167.45,188.927,167.687,183.302z"/>
	<path fill="#444444" d="M161.466,38.276c-5.407,3.074-10.582,6.048-15.812,8.923c-0.438,0.241-1.512,0.04-1.843-0.343
		c-3.812-4.396-7.537-8.868-11.482-13.555c5.705-2.992,11.194-5.87,16.851-8.836C153.251,29.042,157.27,33.56,161.466,38.276z"/>
	<path fill="#444444" d="M174.982,136.781c4.812,3.566,9.371,6.907,13.865,10.333c0.474,0.36,0.907,1.301,0.781,1.836
		c-1.213,5.169-2.55,10.309-3.934,15.785c-5.587-4.84-10.948-9.442-16.229-14.138c-0.411-0.366-0.547-1.531-0.289-2.08
		C170.979,144.683,172.917,140.914,174.982,136.781z"/>
	<path fill="#444444" d="M192.283,16.4c7.604,0.39,14.806,0.759,22.248,1.141c0.634,4.266,1.251,8.423,1.933,13.014
		c-7.067,0-13.91,0-21.155,0C194.384,26.231,193.386,21.56,192.283,16.4z"/>
	<path fill="#444444" d="M184.61,104.043c3.592-3.331,7.038-6.53,10.729-9.955c3.411,5.048,6.707,9.889,9.931,14.777
		c0.229,0.345,0.079,1.13-0.161,1.562c-1.771,3.188-3.612,6.339-5.553,9.712C194.523,114.718,189.632,109.451,184.61,104.043z"/>
	<path fill="#444444" d="M230.696,74.836c0.597,2.542,1.179,4.778,1.606,7.043c0.097,0.513-0.167,1.334-0.559,1.662
		c-2.799,2.341-5.674,4.592-8.703,7.016c-2.197-4.149-4.276-8.076-6.489-12.253C221.324,77.134,225.812,76.034,230.696,74.836z"/>
	<path fill="#444444" d="M280.302,44.431c-1.057,1.595-2.006,3.026-3.04,4.587c-4.474-2.41-8.79-4.697-13.051-7.084
		c-0.511-0.286-0.984-1.11-1.011-1.707c-0.113-2.47-0.049-4.948-0.049-8.232C269.263,36.425,274.719,40.382,280.302,44.431z"/>
	<path fill="#444444" d="M260.477,79.423c0-2.62,0-4.917,0-7.602c4.377,0.962,8.566,1.847,12.728,2.855
		c0.408,0.1,0.858,0.937,0.902,1.464c0.123,1.471,0.043,2.958,0.043,4.769C269.498,80.404,265.095,79.925,260.477,79.423z"/>
</g>
</svg>
