<?xml version="1.0" encoding="utf-8"?>
<!-- Generator: Adobe Illustrator 16.0.4, SVG Export Plug-In . SVG Version: 6.00 Build 0)  -->
<!DOCTYPE svg PUBLIC "-//W3C//DTD SVG 1.1//EN" "http://www.w3.org/Graphics/SVG/1.1/DTD/svg11.dtd">
<svg version="1.1" id="Layer_1" xmlns="http://www.w3.org/2000/svg" xmlns:xlink="http://www.w3.org/1999/xlink" x="0px" y="0px"
	 width="22.542px" height="22.542px" viewBox="3.792 4.792 22.542 22.542" enable-background="new 3.792 4.792 22.542 22.542"
	 xml:space="preserve">
<path fill="#444444" d="M15.063,4.792c-6.196,0-11.219,5.023-11.219,11.22c0,4.957,3.214,9.162,7.673,10.645
	c0.561,0.104,0.766-0.244,0.766-0.541c0-0.266-0.01-1.15-0.016-2.088c-3.12,0.678-3.779-1.322-3.779-1.322
	c-0.511-1.297-1.246-1.641-1.246-1.641c-1.02-0.697,0.077-0.682,0.077-0.682c1.126,0.076,1.72,1.154,1.72,1.154
	c1.001,1.717,2.627,1.221,3.265,0.932c0.102-0.723,0.392-1.219,0.712-1.498c-2.49-0.283-5.11-1.246-5.11-5.545
	c0-1.227,0.438-2.225,1.154-3.012C8.946,12.13,8.56,10.988,9.171,9.445c0,0,0.941-0.302,3.085,1.149
	c0.894-0.25,1.854-0.373,2.807-0.377c0.953,0.004,1.913,0.129,2.809,0.379c2.141-1.453,3.084-1.149,3.084-1.149
	c0.612,1.545,0.227,2.685,0.111,2.969c0.719,0.785,1.153,1.785,1.153,3.011c0,4.31-2.624,5.259-5.123,5.538
	c0.403,0.348,0.761,1.029,0.761,2.074c0,1.5-0.016,2.709-0.016,3.08c0,0.299,0.205,0.648,0.772,0.537
	c4.455-1.484,7.666-5.689,7.666-10.645C26.281,9.816,21.259,4.792,15.063,4.792L15.063,4.792z"/>
</svg>
