<?xml version="1.0" encoding="utf-8"?>
<!-- Generator: Adobe Illustrator 16.0.4, SVG Export Plug-In . SVG Version: 6.00 Build 0)  -->
<!DOCTYPE svg PUBLIC "-//W3C//DTD SVG 1.1//EN" "http://www.w3.org/Graphics/SVG/1.1/DTD/svg11.dtd">
<svg version="1.1" id="Layer_1" xmlns="http://www.w3.org/2000/svg" xmlns:xlink="http://www.w3.org/1999/xlink" x="0px" y="0px"
	 width="88.504px" height="88.504px" viewBox="0 0 88.504 88.504" enable-background="new 0 0 88.504 88.504" xml:space="preserve">
<g>
	<path fill="#444444" d="M18.952,20.614c-6.97,19.127,4.118,36.458,17.371,44.556c13.552,8.281,33.491,8.504,44.742-3.514
		c-1.561,5.12-7.283,11.004-13.661,14.326C41.886,89.277,10.977,69.192,10.129,41.68C9.877,33.539,12.927,26.586,18.952,20.614z"/>
	<path fill="#444444" d="M37.528,14.566C32.95,28.808,40.92,40.311,49.833,46.032c9.484,6.09,23.222,7.401,33.336-2.396
		c-0.822,1.375-1.486,2.88-2.492,4.105c-5.723,6.963-13.217,9.69-22.111,9.289C45.051,56.42,32.763,44.78,31.614,31.334
		C31.079,25.08,33.161,19.739,37.528,14.566z"/>
	<path fill="#444444" d="M53.022,11.057c-3.172,12.48,11.206,26.812,26.416,20.118c-1.898,3.452-4.58,5.477-8.465,5.799
		c-8.417,0.698-15.842-3.425-19.666-10.952C48.87,21.224,49.488,15.041,53.022,11.057z"/>
</g>
</svg>
