<?xml version="1.0" encoding="utf-8"?>
<!-- Generator: Adobe Illustrator 16.0.4, SVG Export Plug-In . SVG Version: 6.00 Build 0)  -->
<!DOCTYPE svg PUBLIC "-//W3C//DTD SVG 1.1//EN" "http://www.w3.org/Graphics/SVG/1.1/DTD/svg11.dtd">
<svg version="1.1" id="Icon" xmlns="http://www.w3.org/2000/svg" xmlns:xlink="http://www.w3.org/1999/xlink" x="0px" y="0px"
	 width="1700.791px" height="1700.789px" viewBox="0 425.195 1700.791 1700.789"
	 enable-background="new 0 425.195 1700.791 1700.789" xml:space="preserve">
<path fill="#444444" d="M1488.192,425.195H212.599C95.208,425.195,0,520.403,0,637.794v1275.592
	c0,117.392,95.209,212.599,212.598,212.599h1275.591c117.392,0,212.601-95.205,212.601-212.599l0.002-1275.592
	C1700.792,520.403,1605.583,425.195,1488.192,425.195z M645.768,1685.091H469.029v-604.1h176.737L645.768,1685.091L645.768,1685.091
	z M556.264,1015.298c-55.808,0-93.048-39.543-91.879-88.37c-1.169-51.165,36.036-89.539,93.015-89.539
	c56.977,0,93.048,38.374,94.217,89.539C651.615,975.755,614.41,1015.298,556.264,1015.298z M1327.075,1685.125h-176.74v-336.402
	c0-73.273-25.583-123.271-89.54-123.271c-48.826,0-77.917,33.733-89.539,66.295c-4.64,11.659-6.943,27.922-6.943,44.221v349.158
	H787.573v-408.509c0-70.939-0.318-145.598-2.622-195.592H941.46l3.082,92.092h3.508c61.441-95.279,119.089-83.622,175.607-83.622
	c116.256,0,203.491,69.626,203.419,237.082L1327.075,1685.125L1327.075,1685.125z"/>
</svg>
