<?xml version="1.0" encoding="utf-8"?>
<!-- Generator: Adobe Illustrator 16.0.4, SVG Export Plug-In . SVG Version: 6.00 Build 0)  -->
<!DOCTYPE svg PUBLIC "-//W3C//DTD SVG 1.1//EN" "http://www.w3.org/Graphics/SVG/1.1/DTD/svg11.dtd">
<svg version="1.1" id="Layer_1" xmlns="http://www.w3.org/2000/svg" xmlns:xlink="http://www.w3.org/1999/xlink" x="0px" y="0px"
	 width="2000px" height="2000px" viewBox="0 -326.82 2000 2000" enable-background="new 0 -326.82 2000 2000" xml:space="preserve">
<path fill="#444444" d="M2000,67.4c-73.58,32.64-152.67,54.69-235.66,64.61c84.7-50.78,149.77-131.19,180.41-227.01
	c-79.29,47.03-167.1,81.17-260.57,99.57C1609.34-75.18,1502.7-125,1384.68-125c-226.6,0-410.328,183.71-410.328,410.31
	c0,32.16,3.63,63.48,10.625,93.512C643.961,361.71,341.609,198.35,139.238-49.9C103.914,10.7,83.68,81.19,83.68,156.39
	c0,142.36,72.437,267.95,182.543,341.53c-67.262-2.13-130.535-20.59-185.852-51.32c-0.039,1.711-0.039,3.42-0.039,5.16
	c0,198.803,141.441,364.635,329.145,402.342c-34.426,9.375-70.676,14.395-108.098,14.395c-26.441,0-52.145-2.578-77.203-7.363
	c52.215,163.01,203.75,281.648,383.305,284.945c-140.43,110.062-317.352,175.66-509.598,175.66c-33.121,0-65.785-1.949-97.883-5.738
	c181.586,116.418,397.27,184.359,628.988,184.359c754.73,0,1167.462-625.238,1167.462-1167.469c0-17.791-0.41-35.479-1.2-53.079
	C1875.43,221.95,1944.99,149.69,2000,67.4"/>
</svg>
